<svg width="149" height="46" viewBox="0 0 149 46" fill="none" xmlns="http://www.w3.org/2000/svg">
<path d="M147.444 41.4348H144.545V41.9297H146.878V44.6869C146.383 44.8991 145.747 45.0051 145.04 45.0051C143.909 45.0051 143.06 44.7223 142.495 44.1213C141.929 43.5204 141.646 42.6367 141.646 41.4701C141.646 40.3743 141.965 39.5259 142.566 38.8896C143.202 38.2533 144.015 37.9351 145.04 37.9351C145.782 37.9351 146.489 38.0766 147.161 38.3947L147.373 37.8998C146.701 37.5816 145.924 37.4403 145.075 37.4403C144.298 37.4403 143.591 37.5816 142.99 37.9351C142.389 38.2533 141.894 38.7482 141.576 39.3491C141.258 39.9501 141.081 40.6571 141.081 41.4701C141.081 42.7427 141.399 43.7325 142.071 44.4395C142.707 45.1465 143.661 45.5 144.898 45.5C145.818 45.5 146.701 45.3233 147.444 45.0051V41.4348Z" fill="#0071CE"/>
<path d="M70.4521 45.3939V37.5463H70.9824V44.8637H74.7295V45.3939H70.4521Z" fill="#0071CE"/>
<path d="M85.8646 45.3939H81.5873V37.5463H85.8646V38.0412H82.1175V41.0106H85.6525V41.5055H82.1175V44.8637H85.8646V45.3939Z" fill="#0071CE"/>
<path d="M98.2724 45.3939H98.838V37.5463H98.3078V42.672C98.3078 43.2377 98.3078 43.8739 98.3431 44.5102H98.3078L93.6769 37.5463H93.1467V45.3939H93.6769V40.3036C93.6769 39.8795 93.6415 39.2431 93.6061 38.4301H93.6415L98.2724 45.3939Z" fill="#0071CE"/>
<path fill-rule="evenodd" clip-rule="evenodd" d="M112.518 41.3994C112.518 42.7074 112.165 43.6971 111.493 44.3688C110.786 45.0404 109.796 45.3939 108.453 45.3939H106.58V37.5463H108.701C109.938 37.5463 110.892 37.8645 111.564 38.5361C112.235 39.2078 112.518 40.1269 112.518 41.3994ZM111.917 41.3994C111.917 40.2682 111.634 39.4199 111.069 38.8543C110.503 38.2887 109.655 38.0059 108.559 38.0059H107.11V44.8991H108.418C110.751 44.8991 111.917 43.7325 111.917 41.3994Z" fill="#0071CE"/>
<path d="M119.8 37.5463V45.3939H120.33V37.5463H119.8Z" fill="#0071CE"/>
<path d="M133.763 45.3939H133.198L128.567 38.4301H128.532C128.54 38.6256 128.548 38.8109 128.557 38.9854C128.582 39.5368 128.602 39.9815 128.602 40.3036V45.3939H128.072V37.5463H128.602L133.233 44.5102H133.268C133.233 43.8739 133.233 43.2377 133.233 42.672V37.5463H133.763V45.3939Z" fill="#0071CE"/>
<path d="M81.0212 30.6885L78.3288 30.1368C78.2815 27.9514 78.264 25.1445 78.264 23.2297V17.4324L78.4054 11.2816L77.6984 10.8222L69.7801 13.6147V15.2409L72.9262 15.6296C73.0323 17.3618 73.0676 18.7404 73.0676 21.1441V23.2297C73.0676 25.1403 73.0329 27.9389 72.9876 30.1223L70.1336 30.6885V32.4914H81.0212V30.6885Z" fill="#0071CE"/>
<path d="M72.3254 3.64608C72.3254 1.77262 73.7746 0.5 75.6482 0.5C77.4863 0.5 78.971 1.77262 78.971 3.64608C78.971 5.48433 77.5216 6.79216 75.6482 6.79216C73.7746 6.75695 72.3254 5.44895 72.3254 3.64608Z" fill="#0071CE"/>
<path fill-rule="evenodd" clip-rule="evenodd" d="M3.65026 29.8552L0 30.4056V32.4559H9.75653V30.4056L5.9618 29.8379L8.06741 23.5125H17.6163L19.7297 29.9811L15.8719 30.4764V32.4913H28.5624V30.4764L25.5724 30.1145L16.4022 3.22182H12.7966L3.65026 29.8552ZM16.8656 21.2147L12.8866 9.03535L8.83223 21.2147H16.8656Z" fill="#0071CE"/>
<path d="M38.8083 30.1497L41.3944 30.6885V32.4913H30.5774V30.6885L33.3959 30.1292C33.4411 27.9448 33.4762 25.1422 33.4762 23.2297V20.932C33.4762 18.5281 33.4408 17.3971 33.3348 15.6296L30.2593 15.2407V13.6146L37.5767 10.822L38.2837 11.2815L38.6051 14.7679C40.7427 12.3081 43.2484 10.8574 45.9545 10.8574C48.7723 10.8574 50.5876 12.097 51.3869 14.799C53.7559 11.9636 56.2579 10.822 58.8925 10.822C62.8869 10.8574 64.9019 13.2257 64.9019 18.5635V23.2651C64.9019 25.2144 64.9192 27.9729 64.9656 30.1347L67.6239 30.6885V32.4913H56.9129V30.6885L59.6266 30.1231C59.6499 29.0058 59.6703 27.7299 59.6844 26.4858C59.6975 25.3348 59.7055 24.211 59.7055 23.2651V19.2351C59.7055 15.5234 58.7865 14.4983 56.5948 14.4983C54.988 14.4983 53.4314 15.2246 51.7563 16.6983C51.8241 17.3049 51.858 17.9615 51.858 18.6697V23.2651C51.858 25.2175 51.8752 27.9817 51.9218 30.1449L54.5092 30.6885V32.4913H43.7981V30.6885L46.5826 30.1225C46.6273 27.9719 46.6615 25.2333 46.6615 23.2651V19.3059C46.6615 15.7355 45.8485 14.5337 43.5508 14.5337C41.8777 14.5337 40.3022 15.3867 38.7432 16.7486V23.2297C38.7432 25.1482 38.7608 27.9624 38.8083 30.1497Z" fill="#0071CE"/>
<path d="M95.8329 29.6281C91.9444 29.6281 89.2578 26.7293 89.2578 21.4269C89.2578 15.6296 91.9796 12.9783 95.1259 13.0137C95.6639 13.0137 96.2077 13.0676 96.7603 13.1801L97.3174 15.8063C97.6003 17.8919 98.5901 18.8818 100.181 18.8818C101.524 18.8818 102.302 18.2808 102.655 16.9376C102.231 13.544 98.9789 10.8928 94.7016 10.8928C88.7981 10.8928 83.7432 15.0287 83.7432 22.0633C83.7432 29.0978 88.0911 33.1276 94.1006 33.1276C98.2366 33.1276 101.206 31.2542 102.655 27.6484L101.347 26.6941C100.039 28.5322 98.1658 29.6281 95.8329 29.6281Z" fill="#0071CE"/>
<path d="M131.996 26.1637L132.031 31.2541C134.258 32.4559 136.414 33.0923 139.136 33.0569C145.04 33.0569 148.327 30.2289 148.327 26.2698C148.327 23.2651 146.666 21.0734 142.388 19.6594L140.656 19.1292C137.687 18.104 136.803 17.3263 136.803 15.7356C136.803 14.0388 138.146 13.0137 140.479 13.0137C141.542 13.0137 142.395 13.1855 143.221 13.5435L144.014 17.2203H146.878L147.125 12.5895C145.04 11.4582 143.06 10.822 140.585 10.822C135.177 10.822 132.208 13.8621 132.208 17.4677C132.208 20.6139 134.223 22.5933 137.51 23.6892L139.702 24.3962C142.53 25.3507 143.59 26.2698 143.59 27.8958C143.59 29.7694 142.106 30.8652 139.171 30.8652C137.879 30.8652 136.783 30.642 135.732 30.2036L134.93 26.1637H131.996Z" fill="#FF6B00"/>
<path d="M115.876 29.416C113.932 29.416 112.907 28.3202 112.907 24.9972H112.942V17.7859L113.154 11.5998L112.589 11.1403L104.953 12.0594V13.7561L107.771 14.3794L107.64 25.2094C107.569 30.9714 109.937 33.0923 113.578 33.0923C116.345 33.0923 118.882 31.7364 120.992 29.0899L121.355 32.8803L128.814 32.4914V30.6885L126.163 30.1262V17.7506L126.304 11.5644L125.739 11.1049L118.245 12.0946V13.7207L120.993 14.3397L120.868 26.9371C119.3 28.4226 117.515 29.416 115.876 29.416Z" fill="#FF6B00"/>
</svg>
