<svg width="182" height="55" viewBox="0 0 182 55" fill="none" xmlns="http://www.w3.org/2000/svg">
<path d="M180.208 50.0314H176.665V50.6362H179.517V54.0062C178.912 54.2655 178.134 54.395 177.27 54.395C175.888 54.395 174.851 54.0495 174.16 53.3149C173.468 52.5804 173.123 51.5003 173.123 50.0745C173.123 48.7352 173.511 47.6982 174.246 46.9205C175.024 46.1429 176.017 45.754 177.27 45.754C178.178 45.754 179.042 45.9269 179.863 46.3157L180.122 45.7109C179.301 45.3219 178.35 45.1492 177.313 45.1492C176.363 45.1492 175.499 45.3219 174.764 45.754C174.03 46.1429 173.425 46.7477 173.036 47.4822C172.647 48.2168 172.431 49.0809 172.431 50.0745C172.431 51.6299 172.82 52.8397 173.641 53.7038C174.419 54.5679 175.585 55 177.097 55C178.221 55 179.301 54.7839 180.208 54.395V50.0314Z" fill="white"/>
<path d="M86.1074 54.8703V45.2788H86.7555V54.2222H91.3353V54.8703H86.1074Z" fill="white"/>
<path d="M104.945 54.8703H99.717V45.2788H104.945V45.8836H100.365V49.5129H104.686V50.1178H100.365V54.2222H104.945V54.8703Z" fill="white"/>
<path d="M120.11 54.8703H120.801V45.2788H120.153V51.5435C120.153 52.2349 120.153 53.0125 120.196 53.7902H120.153L114.493 45.2788H113.845V54.8703H114.493V48.6488C114.493 48.1304 114.45 47.3527 114.407 46.3589H114.45L120.11 54.8703Z" fill="white"/>
<path fill-rule="evenodd" clip-rule="evenodd" d="M137.521 49.9881C137.521 51.5868 137.089 52.7965 136.269 53.6174C135.404 54.4383 134.195 54.8703 132.553 54.8703H130.263V45.2788H132.855C134.368 45.2788 135.534 45.6676 136.355 46.4886C137.176 47.3094 137.521 48.4328 137.521 49.9881ZM136.787 49.9881C136.787 48.6056 136.441 47.5687 135.75 46.8774C135.059 46.1862 134.022 45.8405 132.683 45.8405H130.911V54.2655H132.51C135.361 54.2655 136.787 52.8397 136.787 49.9881Z" fill="white"/>
<path d="M146.422 45.2788V54.8703H147.07V45.2788H146.422Z" fill="white"/>
<path d="M163.488 54.8703H162.796L157.137 46.3589H157.093C157.104 46.5978 157.114 46.8243 157.124 47.0376C157.155 47.7116 157.18 48.2551 157.18 48.6488V54.8703H156.532V45.2788H157.18L162.84 53.7902H162.883C162.84 53.0125 162.84 52.2349 162.84 51.5435V45.2788H163.488V54.8703Z" fill="white"/>
<path d="M99.0259 36.8971L95.7351 36.2228C95.6773 33.5517 95.656 30.121 95.656 27.7808V20.6952L95.8288 13.1776L94.9647 12.616L85.2868 16.0291V18.0166L89.132 18.4917C89.2618 20.6089 89.3048 22.2939 89.3048 25.2317V27.7808C89.3048 30.1159 89.2624 33.5365 89.2071 36.205L85.7189 36.8971V39.1006H99.0259V36.8971Z" fill="white"/>
<path d="M88.3977 3.84521C88.3977 1.55543 90.1689 0 92.4589 0C94.7054 0 96.5201 1.55543 96.5201 3.84521C96.5201 6.09196 94.7487 7.69042 92.4589 7.69042C90.1689 7.64739 88.3977 6.04871 88.3977 3.84521Z" fill="white"/>
<path fill-rule="evenodd" clip-rule="evenodd" d="M4.46143 35.8786L0 36.5513V39.0573H11.9246V36.5513L7.28664 35.8575L9.86017 28.1263H21.531L24.1141 36.0325L19.399 36.6378V39.1005H34.9096V36.6378L31.2551 36.1955L20.0471 3.32667H15.6403L4.46143 35.8786ZM20.6136 25.318L15.7502 10.4321L10.7949 25.318H20.6136Z" fill="white"/>
<path d="M47.4324 36.2385L50.5932 36.897V39.1005H37.3724V36.897L40.8172 36.2135C40.8725 33.5436 40.9153 30.1183 40.9153 27.7808V24.9725C40.9153 22.0344 40.8721 20.6519 40.7425 18.4917L36.9836 18.0164V16.0289L45.9271 12.6158L46.7912 13.1773L47.184 17.4386C49.7966 14.4321 52.8591 12.659 56.1666 12.659C59.6106 12.659 61.8293 14.1741 62.8062 17.4765C65.7017 14.0111 68.7596 12.6158 71.9797 12.6158C76.8618 12.659 79.3246 15.5536 79.3246 22.0776V27.824C79.3246 30.2064 79.3457 33.578 79.4024 36.2201L82.6515 36.897V39.1005H69.5602V36.897L72.8769 36.206C72.9054 34.8404 72.9303 33.281 72.9476 31.7604C72.9636 30.3537 72.9734 28.9801 72.9734 27.824V22.8985C72.9734 18.362 71.8502 17.109 69.1714 17.109C67.2075 17.109 65.3051 17.9968 63.2577 19.798C63.3406 20.5393 63.382 21.3418 63.382 22.2074V27.824C63.382 30.2102 63.403 33.5888 63.46 36.2327L66.6223 36.897V39.1005H53.5311V36.897L56.9343 36.2053C56.9889 33.5768 57.0307 30.2296 57.0307 27.824V22.985C57.0307 18.6212 56.0371 17.1523 53.2288 17.1523C51.1839 17.1523 49.2582 18.1949 47.3528 19.8594V27.7808C47.3528 30.1256 47.3743 33.5652 47.4324 36.2385Z" fill="white"/>
<path d="M117.129 35.601C112.376 35.601 109.093 32.0581 109.093 25.5773C109.093 18.4917 112.42 15.2513 116.265 15.2946C116.923 15.2946 117.587 15.3604 118.263 15.4979L118.944 18.7077C119.289 21.2568 120.499 22.4666 122.443 22.4666C124.085 22.4666 125.035 21.7321 125.468 20.0904C124.949 15.9426 120.974 12.7023 115.746 12.7023C108.531 12.7023 102.353 17.7573 102.353 26.3551C102.353 34.9529 107.667 39.8782 115.012 39.8782C120.067 39.8782 123.696 37.5884 125.468 33.1814L123.869 32.015C122.27 34.2616 119.98 35.601 117.129 35.601Z" fill="white"/>
<path d="M161.327 31.3667L161.371 37.5883C164.092 39.0572 166.728 39.8349 170.055 39.7917C177.27 39.7917 181.288 36.3353 181.288 31.4964C181.288 27.824 179.257 25.1452 174.03 23.417L171.913 22.7689C168.283 21.516 167.203 20.5654 167.203 18.6212C167.203 16.5474 168.845 15.2945 171.697 15.2945C172.995 15.2945 174.038 15.5044 175.047 15.942L176.017 20.4359H179.517L179.819 14.776C177.27 13.3933 174.85 12.6157 171.826 12.6157C165.216 12.6157 161.587 16.3314 161.587 20.7382C161.587 24.5836 164.049 27.0029 168.067 28.3423L170.746 29.2064C174.202 30.3731 175.498 31.4964 175.498 33.4837C175.498 35.7737 173.684 37.113 170.098 37.113C168.518 37.113 167.179 36.8402 165.894 36.3044L164.913 31.3667H161.327Z" fill="#FF6B00"/>
<path d="M141.626 35.3417C139.249 35.3417 137.997 34.0025 137.997 29.941H138.04V21.1272L138.299 13.5663L137.608 13.0047L128.275 14.1281V16.2019L131.719 16.9637L131.559 30.2003C131.473 37.2427 134.367 39.835 138.817 39.835C142.199 39.835 145.299 38.1778 147.878 34.9431L148.323 39.5759L157.439 39.1006V36.8971L154.198 36.2098V21.084L154.371 13.5231L153.68 12.9615L144.521 14.1711V16.1586L147.88 16.9151L147.727 32.312C145.81 34.1276 143.629 35.3417 141.626 35.3417Z" fill="#FF6B00"/>
</svg>
